<?xml version="1.0" encoding="utf-8"?>
<!-- Generator: Adobe Illustrator 25.3.1, SVG Export Plug-In . SVG Version: 6.00 Build 0)  -->
<svg version="1.1" id="Capa_1" xmlns="http://www.w3.org/2000/svg" xmlns:xlink="http://www.w3.org/1999/xlink" x="0px" y="0px"
	 viewBox="0 0 595.28 841.89" style="enable-background:new 0 0 595.28 841.89;" xml:space="preserve">
<g>
	<g>
		<path d="M97.5,442.02c-8.4-28-16.81-56-25.21-84c6.82-2.95,10.25-4.37,17.13-7.08c7.96,30.33,15.93,60.66,23.89,91
			C106.99,441.96,103.83,441.98,97.5,442.02z M110.95,423.51c11.82-1.04,23.65-1.97,35.49-2.8c1.61,8.41,2.42,12.62,4.03,21.03
			c-10.39,0.05-15.59,0.07-25.98,0.12C119.14,434.24,116.43,430.56,110.95,423.51z"/>
		<path d="M204.76,354.42c2.92,29.04,5.84,58.07,8.76,87.11c-5.92,0.01-8.88,0.02-14.8,0.04c-1.7-14.18-3.4-28.37-5.11-42.55
			c-0.39-3.29-1.2-6.32-2.42-9.06c-1.22-2.74-2.75-5.1-4.58-7.06c-1.83-1.96-3.86-3.39-6.07-4.29c-2.21-0.9-4.45-1.19-6.71-0.87
			c-2.34,0.33-4.43,1.25-6.25,2.73c-1.83,1.48-3.37,3.33-4.61,5.52c-1.24,2.19-2.08,4.7-2.51,7.51c-0.43,2.81-0.39,5.73,0.12,8.8
			c0.49,2.96,1.38,5.71,2.67,8.29c1.29,2.57,2.85,4.83,4.68,6.76c1.83,1.93,3.79,3.45,5.9,4.54c2.1,1.09,4.26,1.6,6.49,1.5
			c2.38-0.11,4.33-0.79,5.86-2.09c0.05,0,0.07,0,0.12-0.01c0.02,0.13,0.03,0.2,0.04,0.33c3.1,5.82,4.63,8.77,7.66,14.73
			c-0.04,0.07-0.06,0.1-0.09,0.17c-3.18,4.32-7.43,6.4-12.85,6.4c-3.99,0-7.91-1.09-11.79-3.17c-3.89-2.09-7.48-4.91-10.78-8.43
			c-3.3-3.52-6.19-7.59-8.65-12.24c-2.46-4.64-4.22-9.58-5.23-14.91c-1.03-5.43-1.19-10.61-0.44-15.63c0.75-5.02,2.21-9.6,4.4-13.74
			c2.19-4.14,5.03-7.69,8.52-10.6c3.49-2.91,7.42-4.82,11.78-5.61c4.27-0.78,8.17-0.36,11.65,1.28c3.48,1.64,6.62,4.39,9.4,8.24
			c-0.55-4.57-0.82-6.86-1.37-11.43C195.01,355.71,198.26,355.25,204.76,354.42z"/>
		<path d="M249.39,348.98c4.41-0.3,8.64,0.69,12.64,2.96c4,2.27,7.5,5.53,10.49,9.76c2.99,4.23,5.37,9.25,7.14,15.02
			c1.77,5.78,2.69,11.96,2.8,18.51c0.11,6.56-0.6,12.75-2.08,18.57c-1.48,5.82-3.51,10.9-6.06,15.24
			c-2.56,4.33-5.56,7.73-9.02,10.19c-3.46,2.46-7.16,3.68-11.14,3.69c-7.75,0-13.92-4.61-18.7-13.65c0.35,4.89,0.53,7.33,0.88,12.22
			c-5.97,0.01-8.95,0.02-14.92,0.03c-3.72-41.14-7.45-82.28-11.17-123.41c6.85-1.07,10.28-1.55,17.15-2.41
			c1.94,27.02,3.89,54.03,5.83,81.05c0.25,3.48,0.92,6.69,1.99,9.65c1.07,2.96,2.41,5.54,3.99,7.72c1.59,2.19,3.4,3.92,5.45,5.21
			c2.05,1.29,4.19,1.92,6.42,1.88c2.16-0.04,4.19-0.74,6.09-2.12c1.91-1.38,3.53-3.21,4.88-5.51c1.35-2.29,2.4-4.98,3.15-8.07
			c0.75-3.09,1.07-6.42,0.95-9.98c-0.12-3.56-0.68-6.87-1.67-9.92c-0.99-3.04-2.28-5.71-3.87-7.98c-1.59-2.27-3.45-4-5.58-5.19
			c-2.13-1.19-4.35-1.71-6.62-1.59c-2.2,0.12-4.36,0.92-6.47,2.38c-0.04,0.08-0.07,0.11-0.11,0.19c-0.06-0.14-0.09-0.21-0.14-0.36
			c-2.78-6.39-4.2-9.56-7.06-15.86c0.04-0.08,0.07-0.11,0.11-0.19C238.48,352.11,243.39,349.38,249.39,348.98z"/>
		<path d="M312.88,311.5c-0.65,43.31-1.3,86.62-1.95,129.93c-6.51,0-9.76,0-16.27,0c-0.13-35.81-0.27-71.62-0.4-107.44
			c-10.46,0.06-15.7,0.19-26.15,0.67c-0.28-9.02-0.41-13.52-0.69-22.54C282.6,311.46,297.69,311.26,312.88,311.5z M315.61,311.58
			c9.61,0.3,14.42,0.55,24.01,1.26c-0.38,8.97-0.57,13.45-0.94,22.41c-6.29-0.39-9.43-0.55-15.73-0.79
			C320.09,325.31,318.62,320.73,315.61,311.58z"/>
		<path d="M352.77,349.07c4.41,0.34,8.5,1.94,12.22,4.74c3.72,2.81,6.85,6.44,9.37,10.86c2.52,4.42,4.35,9.46,5.51,15.12
			c1.15,5.66,1.41,11.63,0.82,17.96c-0.32,3.4-0.86,6.66-1.62,9.81c-0.06,0.14-0.09,0.21-0.15,0.35c-9.93-0.5-19.88-0.9-29.82-1.2
			c-2.58-7.52-3.91-11.3-6.61-18.88c9.12,0.36,13.67,0.58,22.77,1.12c-0.74-5.09-2.31-9.34-4.72-12.76
			c-2.41-3.42-5.43-5.26-9.01-5.48c-2.2-0.13-4.31,0.42-6.33,1.65s-3.79,2.95-5.3,5.14c-1.52,2.19-2.74,4.84-3.67,7.92
			c-0.93,3.08-1.47,6.46-1.61,10.13c-0.11,2.81,0.13,5.72,0.71,8.73c0.58,3.01,1.48,5.75,2.7,8.21c1.21,2.46,2.71,4.53,4.48,6.2
			s3.81,2.53,6.12,2.57c2.08,0.04,4.02-0.38,5.81-1.24c1.79-0.87,3.57-2.84,5.34-5.91c0.05-0.07,0.08-0.11,0.13-0.18
			c0.09,0.07,0.13,0.11,0.22,0.19c5.15,3.84,7.69,5.75,12.73,9.51c-0.1,0.14-0.16,0.21-0.26,0.35c-3.28,5.89-7.14,10.51-11.59,13.86
			c-4.45,3.35-8.97,5.06-13.63,5.06c-4.06,0-7.81-1.22-11.29-3.67c-3.48-2.46-6.48-5.85-9.01-10.17c-2.53-4.32-4.53-9.4-5.97-15.21
			c-1.44-5.82-2.11-12-1.96-18.55c0.15-6.67,1.11-12.89,2.92-18.65c1.81-5.76,4.22-10.74,7.24-14.94c3.02-4.2,6.57-7.45,10.62-9.73
			C343.97,349.7,348.27,348.73,352.77,349.07z"/>
		<path d="M428.29,411.09c4.33,4.95,6.46,7.36,10.66,12.04c-0.06,0.06-0.09,0.09-0.14,0.15c-3.78,6.04-8.2,10.84-13.28,14.39
			c-5.08,3.55-10.17,5.42-15.36,5.42c-4.06,0-7.7-1.13-10.97-3.47c-3.27-2.33-6.01-5.53-8.23-9.61c-2.23-4.07-3.86-8.88-4.9-14.4
			c-1.03-5.52-1.27-11.39-0.65-17.55c0.61-6.17,2-11.93,4.2-17.22c2.2-5.29,4.95-9.79,8.25-13.46c3.3-3.66,7.03-6.37,11.18-8.1
			c4.15-1.73,8.46-2.18,12.91-1.4c5.68,0.99,10.69,3.85,14.96,8.36c4.27,4.51,7.26,10.13,8.97,16.78c0.04,0.07,0.06,0.1,0.09,0.17
			c-6.01,3.53-8.99,5.4-14.89,9.3c-0.04-0.07-0.06-0.1-0.09-0.17c-0.65-4.11-2.01-7.58-4.08-10.4c-2.07-2.83-4.62-4.48-7.6-4.9
			c-2.18-0.3-4.31,0.06-6.37,1.1c-2.06,1.04-3.91,2.58-5.55,4.62c-1.64,2.04-3.02,4.47-4.17,7.28c-1.14,2.81-1.9,5.87-2.29,9.16
			c-0.39,3.29-0.36,6.38,0.08,9.26c0.44,2.88,1.19,5.4,2.25,7.55c1.06,2.15,2.41,3.85,4.07,5.1c1.66,1.25,3.52,1.91,5.59,2
			c2.84,0.12,5.59-0.88,8.28-2.97c2.68-2.09,4.95-5.06,6.82-8.91c0.07-0.12,0.1-0.19,0.17-0.31
			C428.24,410.99,428.25,411.03,428.29,411.09z"/>
		<path d="M461.17,335.27c6.69,2.01,10.02,3.06,16.66,5.28c-7.17,33.74-14.33,67.49-21.48,101.24c-6.01-0.03-9.01-0.04-15.02-0.07
			C447.94,406.24,454.55,370.76,461.17,335.27z M508.8,387.74c2.14,5.85,1.58,13.87-1.55,24.27c-3,10-6,20-9.01,30
			c-6.01-0.04-9.01-0.05-15.02-0.09c2.85-10.77,5.69-21.53,8.54-32.3c0.61-2.32,1.15-4.57,1.6-6.75c0.45-2.18,0.54-4.15,0.26-5.94
			c-0.28-1.79-1.08-3.34-2.41-4.65c-1.33-1.31-3.47-2.3-6.4-2.93c-2.3-0.49-4.97-0.29-8.01,0.67c-0.06,0.05-0.09,0.07-0.15,0.12
			c-0.02-0.12-0.03-0.18-0.06-0.3c-1.18-5.31-1.79-8.01-3.03-13.5c0.06-0.05,0.09-0.07,0.15-0.12c2.57-1.73,5.27-2.79,8.1-3.2
			c2.82-0.41,5.77-0.17,8.83,0.68C500.36,376.4,506.46,381.35,508.8,387.74z"/>
	</g>
</g>
</svg>
